<?xml version="1.0" standalone="no"?>
<!DOCTYPE svg PUBLIC "-//W3C//DTD SVG 20010904//EN"
 "http://www.w3.org/TR/2001/REC-SVG-20010904/DTD/svg10.dtd">
<svg version="1.0" xmlns="http://www.w3.org/2000/svg"
 width="1600.000000pt" height="1600.000000pt" viewBox="0 0 1600.000000 1600.000000"
 preserveAspectRatio="xMidYMid meet">

<g transform="translate(0.000000,1600.000000) scale(0.100000,-0.100000)"
fill="#000000" stroke="none">
<path d="M6544 15975 c-318 -67 -640 -219 -899 -425 -444 -352 -747 -915 -804
-1494 -6 -60 -11 -192 -11 -292 l0 -183 -1252 -4 c-1115 -2 -1259 -4 -1305
-19 -179 -55 -316 -169 -392 -324 -56 -115 -61 -154 -61 -531 l0 -343 -305 0
-305 0 0 -605 0 -605 605 0 605 0 0 -4537 c1 -2578 5 -4594 10 -4668 48 -706
500 -1320 1160 -1578 116 -45 225 -76 374 -105 73 -14 463 -16 3826 -19 2730
-3 3779 -1 3870 7 363 33 689 161 975 384 150 117 331 320 433 488 125 204
211 445 247 689 13 95 15 610 15 4723 l0 4616 608 2 607 3 3 603 2 602 -305 0
-305 0 0 333 c0 253 -4 349 -15 402 -43 205 -204 382 -410 453 l-80 27 -1251
3 -1251 3 -6 237 c-6 266 -21 381 -73 582 -102 392 -298 726 -595 1015 -311
302 -670 489 -1094 570 -69 13 -247 15 -1295 14 l-1215 0 -111 -24z m2461
-1233 c170 -48 303 -129 426 -260 84 -89 136 -172 179 -285 50 -127 61 -196
67 -414 l6 -203 -1802 0 -1801 0 0 164 c0 255 22 370 102 532 103 210 295 377
516 449 133 43 148 44 1212 42 l1015 -2 80 -23z m-1130 -3603 c539 0 1715 3
2613 6 l1632 6 0 -4584 c0 -4549 0 -4584 -20 -4662 -53 -208 -216 -371 -430
-432 -63 -17 -207 -18 -3790 -18 -3572 0 -3728 1 -3789 18 -115 33 -190 76
-273 158 -63 62 -85 92 -117 160 -21 46 -44 108 -50 137 -8 38 -11 1329 -11
4638 l0 4585 1628 -6 c895 -3 2068 -6 2607 -6z"/>
<path d="M4850 6305 l0 -3635 605 0 605 0 0 3635 0 3635 -605 0 -605 0 0
-3635z"/>
<path d="M7270 6305 l0 -3635 605 0 605 0 0 3635 0 3635 -605 0 -605 0 0
-3635z"/>
<path d="M9700 6305 l0 -3635 605 0 605 0 0 3635 0 3635 -605 0 -605 0 0
-3635z"/>
</g>
</svg>
